<?xml version="1.0" encoding="UTF-8"?>
<svg width="273px" height="244px" viewBox="0 0 273 244" version="1.1" xmlns="http://www.w3.org/2000/svg" xmlns:xlink="http://www.w3.org/1999/xlink">
    <!-- Generator: Sketch 52.3 (67297) - http://www.bohemiancoding.com/sketch -->
    <title>transfer (1)</title>
    <desc>Created with Sketch.</desc>
    <g id="Page-1" stroke="none" stroke-width="1" fill="none" fill-rule="evenodd">
        <g id="Artboard" transform="translate(-231.000000, -153.000000)">
            <g id="transfer-(1)" transform="translate(231.000000, 153.000000)">
                <path d="M268,240 L268,226.154416 C268,223.239556 266.725143,220.436806 264.508,218.586991 C252.147429,208.328926 238.844571,201.490217 236.128571,200.144897 C235.796,199.976732 235.629714,199.696457 235.629714,199.360127 L235.629714,179.909043 C238.068571,178.283448 239.620571,175.480698 239.620571,172.341618 L239.620571,152.161819 C239.620571,142.127975 231.583429,134 221.661714,134 L219.5,134 L217.338286,134 C207.416571,134 199.379429,142.127975 199.379429,152.161819 L199.379429,172.341618 C199.379429,175.480698 200.986857,178.283448 203.370286,179.909043 L203.370286,199.360127 C203.370286,199.696457 203.204,200.032787 202.871429,200.144897 C200.155429,201.490217 186.852571,208.272871 174.492,218.586991 C172.274857,220.436806 171,223.239556 171,226.154416 L171,240" id="XMLID_798_" fill="#A7A5FF"></path>
                <path d="M54.0578216,116 C51.2787987,116 49,118.298566 49,121.101695 L49,141.284224 C49,165.335072 68.3975796,184.900913 92.2415957,184.900913 L155.825639,184.900913 L147.48857,193.3103 C145.543254,195.27249 145.543254,198.52412 147.48857,200.48631 C148.489018,201.495437 149.767369,202 151.045719,202 C152.32407,202 153.60242,201.495437 154.602869,200.48631 L171.499328,183.443286 C172.444195,182.490222 173,181.200782 173,179.85528 C173,178.509778 172.444195,177.220339 171.499328,176.267275 L154.602869,159.22425 C152.657553,157.26206 149.433886,157.26206 147.48857,159.22425 C145.543254,161.186441 145.543254,164.43807 147.48857,166.400261 L155.825639,174.809648 L92.2415957,174.809648 C73.9556253,174.809648 59.0600628,159.784876 59.0600628,141.340287 L59.0600628,121.157757 C59.0600628,118.242503 56.8368445,116 54.0578216,116 Z" id="Path" fill="#D7D7FF"></path>
                <path d="M118.300537,67.8106962 C119.298748,68.8203163 120.57424,69.3251264 121.849732,69.3251264 C123.125224,69.3251264 124.400716,68.8203163 125.398927,67.8106962 C127.339893,65.8475461 127.339893,62.5943258 125.398927,60.6311756 L117.080501,52.2176749 L180.799642,52.2176749 C199.044723,52.2176749 213.906977,67.2497962 213.906977,85.7034078 L213.906977,105.89581 C213.906977,108.70031 216.18068,111 218.953488,111 C221.726297,111 224,108.70031 224,105.89581 L224,85.7034078 C224,61.6407957 204.645796,42.065384 180.855098,42.065384 L117.135957,42.065384 L125.454383,33.6518833 C127.395349,31.6887331 127.395349,28.4355128 125.454383,26.4723626 C123.513417,24.5092125 120.296959,24.5092125 118.355993,26.4723626 L101.497317,43.5237241 C100.554562,44.4772542 100,45.7673243 100,47.1134844 C100,48.4596445 100.554562,49.7497147 101.497317,50.7032447 L118.300537,67.8106962 Z" id="Path" fill="#D7D7FF"></path>
                <path d="M5.19606829,115 C7.98965339,115 10.2803932,112.725519 10.2803932,109.951761 L10.2803932,96.249397 C10.2803932,94.8625181 10.8949819,93.5311143 11.9565442,92.6435118 C24.0248319,82.8244091 37.0988101,76.2783406 39.557165,75.0578871 C41.5685463,74.0593343 42.9094671,72.0067535 42.9094671,69.7322721 L42.9094671,50.4823927 C42.9094671,48.818138 42.0713916,47.2093584 40.6745991,46.3217559 C39.557165,45.6005789 38.8867046,44.3246503 38.8867046,42.9932465 L38.8867046,23.0221901 C38.8867046,15.8658948 44.7532333,10.0410034 51.9048112,10.0410034 L56.2069322,10.0410034 C63.4143818,10.0410034 69.2250388,15.8658948 69.2250388,23.0221901 L69.2250388,42.9932465 C69.2250388,44.3246503 68.5545784,45.5451037 67.4371443,46.3217559 C66.0403518,47.2648336 65.2022763,48.818138 65.2022763,50.4823927 L65.2022763,69.7322721 C65.2022763,71.9512783 66.4873254,74.0593343 68.5545784,75.0578871 C71.068805,76.2783406 84.1427832,82.8244091 96.1551992,92.6435118 C97.2167615,93.5311143 97.8313502,94.8070429 97.8313502,96.249397 L97.8313502,109.951761 C97.8313502,112.725519 100.12209,115 102.915675,115 C105.70926,115 108,112.725519 108,109.951761 L108,96.249397 C108,91.8113845 106.04449,87.7062229 102.580445,84.8769899 C91.9089498,76.1673903 80.4552509,69.8432224 75.3150543,67.1804149 L75.3150543,52.8123493 C77.8851526,50.2050169 79.3378169,46.710082 79.3378169,42.9932465 L79.3378169,23.0221901 C79.3378169,10.3183792 68.9456803,0 56.1510605,0 L51.8489395,0 C39.0543197,0 28.6621831,10.3183792 28.6621831,23.0221901 L28.6621831,42.9932465 C28.6621831,46.710082 30.1148474,50.2050169 32.6849457,52.8123493 L32.6849457,67.1804149 C27.5447491,69.8432224 16.0910502,76.1673903 5.4195551,84.8769899 C2.01138127,87.6507477 0,91.8113845 0,96.249397 L0,109.951761 C0.111743404,112.780994 2.40248319,115 5.19606829,115 Z" id="Path" fill="#D7D7FF"></path>
                <path d="M170.42236,213.87699 C167.012422,216.650748 165,220.811384 165,225.249397 L165,238.951761 C165,241.725519 167.291925,244 170.086957,244 C172.881988,244 175.173913,241.725519 175.173913,238.951761 L175.173913,225.249397 C175.173913,223.862518 175.78882,222.531114 176.850932,221.643512 C188.925466,211.824409 202.006211,205.278341 204.465839,204.057887 C206.478261,203.059334 207.819876,201.006753 207.819876,198.732272 L207.819876,179.482393 C207.819876,177.818138 206.981366,176.209358 205.583851,175.321756 C204.465839,174.600579 203.795031,173.32465 203.795031,171.993247 L203.795031,152.02219 C203.795031,144.865895 209.664596,139.041003 216.819876,139.041003 L221.124224,139.041003 C228.335404,139.041003 234.204969,144.865895 234.204969,152.02219 L234.204969,171.993247 C234.204969,173.32465 233.534161,174.545104 232.416149,175.321756 C231.018634,176.264834 230.180124,177.818138 230.180124,179.482393 L230.180124,198.732272 C230.180124,200.951278 231.465839,203.059334 233.534161,204.057887 C236.049689,205.278341 249.130435,211.824409 261.149068,221.643512 C262.21118,222.531114 262.826087,223.807043 262.826087,225.249397 L262.826087,238.951761 C262.826087,241.725519 265.118012,244 267.913043,244 C270.708075,244 273,241.725519 273,238.951761 L273,225.249397 C273,220.811384 271.043478,216.706223 267.57764,213.87699 C256.900621,205.16739 245.440994,198.843222 240.298137,196.180415 L240.298137,181.812349 C242.869565,179.205017 244.322981,175.710082 244.322981,171.993247 L244.322981,152.02219 C244.322981,139.318379 233.925466,129 221.124224,129 L216.819876,129 C204.018634,129 193.621118,139.318379 193.621118,152.02219 L193.621118,171.993247 C193.621118,175.710082 195.074534,179.205017 197.645963,181.812349 L197.645963,196.180415 C192.559006,198.843222 181.15528,205.16739 170.42236,213.87699 Z" id="Path" fill="#D7D7FF"></path>
            </g>
        </g>
    </g>
</svg>