<?xml version="1.0" encoding="UTF-8"?>
<svg width="273px" height="235px" viewBox="0 0 273 235" version="1.1" xmlns="http://www.w3.org/2000/svg" xmlns:xlink="http://www.w3.org/1999/xlink">
    <!-- Generator: Sketch 52.3 (67297) - http://www.bohemiancoding.com/sketch -->
    <title>bars</title>
    <desc>Created with Sketch.</desc>
    <g id="Page-1" stroke="none" stroke-width="1" fill="none" fill-rule="evenodd">
        <g id="Artboard" transform="translate(-686.000000, -72.000000)">
            <g id="bars" transform="translate(686.000000, 72.000000)">
                <path d="M227.371134,0 C206.494845,0 190,17.1993127 190,38.6323024 C190,60.0652921 206.752577,77 227.371134,77 C247.989691,77 265,59.8006873 265,38.3676976 C265,16.9347079 248.247423,0 227.371134,0 Z M227.371134,68.532646 C211.134021,68.532646 197.989691,55.0378007 197.989691,38.3676976 C197.989691,21.6975945 211.391753,8.46735395 227.371134,8.46735395 C243.608247,8.46735395 256.752577,21.9621993 256.752577,38.6323024 C256.752577,55.3024055 243.608247,68.532646 227.371134,68.532646 Z" id="Shape" fill="#A7A5FF" fill-rule="nonzero"></path>
                <path d="M239.734043,43.952381 C239.468085,43.1587302 239.468085,42.6296296 238.93617,41.8359788 C238.670213,41.3068783 238.404255,40.5132275 237.87234,39.984127 C237.340426,39.4550265 237.074468,38.9259259 236.542553,38.3968254 C236.010638,37.8677249 235.478723,37.3386243 234.680851,37.0740741 C234.148936,36.5449735 233.351064,36.2804233 232.819149,36.015873 C232.021277,35.7513228 231.489362,35.2222222 230.691489,34.957672 C229.893617,34.6931217 229.095745,34.4285714 228.56383,34.1640212 C228.297872,34.1640212 227.765957,33.8994709 227.5,33.6349206 C227.234043,33.3703704 226.702128,33.3703704 226.43617,33.1058201 C226.170213,32.8412698 225.638298,32.8412698 225.37234,32.5767196 C225.106383,32.3121693 224.840426,32.047619 224.574468,31.7830688 C224.308511,31.5185185 224.042553,31.2539683 224.042553,30.7248677 C223.776596,30.4603175 223.776596,29.9312169 223.776596,29.6666667 C223.776596,29.1375661 223.776596,28.8730159 223.776596,28.3439153 C223.776596,28.0793651 224.042553,27.5502646 224.042553,27.2857143 C224.308511,27.021164 224.308511,26.4920635 224.574468,26.2275132 C224.840426,25.962963 225.106383,25.6984127 225.37234,25.4338624 C225.638298,25.1693122 226.170213,24.9047619 226.702128,24.9047619 C227.234043,24.6402116 227.5,24.6402116 228.031915,24.6402116 C228.297872,24.6402116 228.56383,24.6402116 228.829787,24.6402116 C229.095745,24.6402116 229.361702,24.6402116 229.62766,24.6402116 C230.159574,24.6402116 230.425532,24.6402116 230.957447,24.9047619 C231.489362,24.9047619 232.021277,25.1693122 232.287234,25.1693122 C232.553191,25.1693122 233.085106,25.4338624 233.351064,25.4338624 C233.882979,25.4338624 234.148936,25.6984127 234.414894,25.6984127 L235.744681,26.2275132 L236.010638,24.6402116 L236.542553,20.4074074 L236.542553,19.3492063 L235.478723,19.0846561 C235.212766,19.0846561 234.680851,18.8201058 234.414894,18.8201058 C234.148936,18.8201058 233.882979,18.5555556 233.351064,18.5555556 C233.085106,18.5555556 232.553191,18.2910053 232.021277,18.2910053 C231.489362,18.2910053 231.223404,18.026455 230.691489,18.026455 L230.425532,18.026455 L230.425532,14.3227513 L230.425532,13 L229.095745,13 L225.37234,13 L224.042553,13 L224.042553,14.3227513 L224.042553,18.2910053 L223.776596,18.2910053 C222.978723,18.5555556 222.180851,18.8201058 221.382979,19.3492063 C220.585106,19.6137566 220.053191,20.1428571 219.521277,20.6719577 C218.989362,21.2010582 218.457447,21.7301587 217.925532,22.5238095 C217.393617,23.0529101 217.12766,23.8465608 216.861702,24.6402116 C216.595745,25.4338624 216.329787,26.2275132 216.06383,27.021164 C215.797872,27.8148148 215.797872,28.8730159 215.797872,29.6666667 C215.797872,30.4603175 215.797872,30.989418 216.06383,31.7830688 C216.329787,32.5767196 216.329787,33.1058201 216.861702,33.8994709 C217.12766,34.4285714 217.659574,35.2222222 217.925532,35.7513228 C218.457447,36.2804233 218.723404,36.8095238 219.255319,37.3386243 C219.787234,37.8677249 220.319149,38.3968254 221.117021,38.6613757 C221.648936,39.1904762 222.446809,39.4550265 222.978723,39.7195767 C223.776596,39.984127 224.574468,40.5132275 225.106383,40.7777778 C225.904255,41.042328 226.702128,41.3068783 227.234043,41.5714286 C227.5,41.5714286 228.031915,41.8359788 228.297872,42.1005291 C228.56383,42.3650794 229.095745,42.3650794 229.361702,42.6296296 C229.62766,42.8941799 229.893617,43.1587302 230.159574,43.1587302 C230.425532,43.4232804 230.691489,43.6878307 230.957447,43.952381 C231.223404,44.2169312 231.223404,44.4814815 231.489362,45.010582 C231.489362,45.2751323 231.755319,45.8042328 231.755319,46.3333333 C231.755319,46.8624339 231.755319,47.1269841 231.755319,47.6560847 C231.755319,47.9206349 231.489362,48.4497354 231.223404,48.7142857 C230.957447,48.978836 230.691489,49.2433862 230.425532,49.5079365 C230.159574,49.7724868 229.893617,50.037037 229.361702,50.3015873 C229.095745,50.5661376 228.56383,50.5661376 228.297872,50.8306878 C228.031915,50.8306878 227.5,51.0952381 226.968085,51.0952381 C226.702128,51.0952381 226.43617,51.0952381 225.904255,51.0952381 C225.638298,51.0952381 225.106383,51.0952381 224.840426,51.0952381 C224.308511,51.0952381 223.776596,51.0952381 223.510638,51.0952381 C222.978723,51.0952381 222.446809,50.8306878 222.180851,50.8306878 C221.648936,50.8306878 221.117021,50.5661376 220.585106,50.3015873 C220.053191,50.037037 219.521277,50.037037 218.989362,49.7724868 C218.723404,49.7724868 218.457447,49.5079365 218.191489,49.5079365 C217.925532,49.5079365 217.659574,49.2433862 217.393617,49.2433862 L215.797872,48.4497354 L215.531915,50.3015873 L215,55.0634921 L215,55.8571429 L215.797872,56.1216931 C216.861702,55.8571429 217.393617,56.1216931 218.191489,56.3862434 C218.723404,56.6507937 219.521277,56.9153439 220.053191,56.9153439 C220.585106,57.1798942 221.382979,57.1798942 222.180851,57.4444444 C222.978723,57.7089947 223.510638,57.7089947 224.308511,57.7089947 L224.840426,57.7089947 L224.840426,61.6772487 L224.840426,63 L226.170213,63 L229.893617,63 L231.223404,63 L231.223404,61.6772487 L231.223404,57.4444444 L231.489362,57.4444444 C232.287234,57.1798942 233.085106,56.9153439 233.882979,56.3862434 C234.680851,56.1216931 235.212766,55.5925926 236.010638,55.0634921 C236.542553,54.5343915 237.074468,54.005291 237.606383,53.2116402 C238.138298,52.6825397 238.404255,51.8888889 238.93617,51.0952381 C239.202128,50.3015873 239.468085,49.5079365 239.734043,48.7142857 C240,47.9206349 240,47.1269841 240,46.0687831 C240,45.2751323 240,44.7460317 239.734043,43.952381 Z" id="Path" fill="#A7A5FF"></path>
                <path d="M209.197973,81.634198 C207.91473,79.7665431 205.091596,79.4997353 203.295056,80.8337745 L161.717987,115.251985 L108.078435,92.0397035 C106.795192,91.5060879 105.255301,91.7728957 104.228706,92.5733192 L46.7394257,135.262573 C44.9428857,136.596612 44.4295885,139.26469 45.7128314,141.132345 C46.4827771,142.466384 47.76602,143 49.0492629,143 C49.8192086,143 50.5891543,142.733192 51.3591,142.199576 L107.051841,100.844362 L160.948041,124.056644 C162.231284,124.590259 164.027824,124.323452 165.054418,123.523028 L208.428027,87.7707782 C210.224568,86.436739 210.481216,83.5018528 209.197973,81.634198 Z" id="Path" fill="#A7A5FF"></path>
                <path d="M269.112606,226.545988 L250.055828,226.545988 L250.055828,104.227006 C250.055828,101.849315 248.25316,100 245.935443,100 L208.079412,100 C205.761696,100 203.959027,101.849315 203.959027,104.227006 L203.959027,226.545988 L190.05273,226.545988 L190.05273,146.497065 C190.05273,144.119374 188.250062,142.270059 185.932346,142.270059 L147.81879,142.270059 C145.501074,142.270059 143.698406,144.119374 143.698406,146.497065 L143.698406,226.545988 L129.792108,226.545988 L129.792108,140.156556 C129.792108,137.778865 127.98944,135.92955 125.671724,135.92955 L87.8156924,135.92955 C85.4979761,135.92955 83.695308,137.778865 83.695308,140.156556 L83.695308,226.545988 L69.7890106,226.545988 L69.7890106,164.990215 C69.7890106,162.612524 67.9863425,160.763209 65.6686262,160.763209 L27.5550706,160.763209 C25.2373544,160.763209 23.4346862,162.612524 23.4346862,164.990215 L23.4346862,226.545988 L4.12038439,226.545988 C1.80266817,226.545988 0,228.395303 0,230.772994 C0,233.150685 1.80266817,235 4.12038439,235 L27.2975466,235 L65.1535782,235 L87.8156924,235 L125.671724,235 L147.81879,235 L185.674822,235 L207.821888,235 L245.677919,235 L268.855082,235 C271.172798,235 272.975466,233.150685 272.975466,230.772994 C273.23299,228.395303 271.430322,226.545988 269.112606,226.545988 Z M61.2907178,226.545988 L31.675455,226.545988 L31.675455,169.217221 L61.2907178,169.217221 L61.2907178,226.545988 Z M121.55134,226.545988 L91.9360767,226.545988 L91.9360767,144.383562 L121.55134,144.383562 L121.55134,226.545988 Z M181.554437,226.545988 L151.939174,226.545988 L151.939174,150.72407 L181.554437,150.72407 L181.554437,226.545988 Z M241.815059,226.545988 L212.199796,226.545988 L212.199796,108.454012 L241.815059,108.454012 L241.815059,226.545988 Z" id="Shape" fill="#D7D7FF" fill-rule="nonzero"></path>
            </g>
        </g>
    </g>
</svg>