<?xml version="1.0" encoding="UTF-8"?>
<svg width="325px" height="244px" viewBox="0 0 325 244" version="1.1" xmlns="http://www.w3.org/2000/svg" xmlns:xlink="http://www.w3.org/1999/xlink">
    <!-- Generator: Sketch 52.3 (67297) - http://www.bohemiancoding.com/sketch -->
    <title>business-and-finance</title>
    <desc>Created with Sketch.</desc>
    <g id="Page-1" stroke="none" stroke-width="1" fill="none" fill-rule="evenodd">
        <g id="Artboard" transform="translate(-325.000000, -543.000000)">
            <g id="business-and-finance" transform="translate(325.000000, 543.000000)">
                <rect id="Rectangle" fill="#A7A5FF" x="59" y="35" width="254" height="35"></rect>
                <path d="M310.106469,0 L68.685753,0 C60.4738997,0 53.7922221,6.66454687 53.7922221,14.8615233 L53.7922221,53.6738483 L14.8907532,53.6738483 C6.68167755,53.6738483 0,60.3383948 0,68.535372 L0,229.138476 C0,237.335453 6.68167755,244 14.8907532,244 L256.314247,244 C264.5261,244 271.205,237.335453 271.205,229.138476 L271.205,190.323381 L310.106469,190.323381 C318.318323,190.323381 325,183.661606 325,175.464628 L325,14.8615233 C325,6.66454687 318.318323,6.0487683e-14 310.106469,6.0487683e-14 Z M68.685753,12.9716189 L310.106469,12.9716189 C311.150655,12.9716189 311.997668,13.8223533 311.997668,14.8615233 L311.997668,36.4457868 L66.7917783,36.4457868 L66.7917783,14.8615233 C66.7917783,13.8223533 67.6415673,12.9716189 68.685753,12.9716189 Z M311.997668,49.417406 L311.997668,70.2063576 L66.7917783,70.2063576 L66.7917783,49.417406 L311.997668,49.417406 Z M258.205445,229.138476 C258.205445,230.177647 257.358433,231.025611 256.314247,231.025611 L14.8907532,231.025611 C13.8465676,231.025611 12.9995555,230.177647 12.9995555,229.138476 L12.9995555,68.535372 C12.9995555,67.4962013 13.8465676,66.6482378 14.8907532,66.6482378 L53.7922221,66.6482378 L53.7922221,175.464628 C53.7922221,183.661606 60.4738997,190.323381 68.685753,190.323381 L258.205445,190.323381 L258.205445,229.138476 Z M310.106469,177.351762 L68.685753,177.351762 C67.6415673,177.351762 66.7917783,176.503799 66.7917783,175.464628 L66.7917783,83.1779761 L311.997668,83.1779761 L311.997668,175.464628 C311.997668,176.503799 311.150655,177.351762 310.106469,177.351762 Z" id="Shape" fill="#BAB9FF" fill-rule="nonzero"></path>
            </g>
        </g>
    </g>
</svg>