<?xml version="1.0" encoding="UTF-8"?>
<svg width="244px" height="244px" viewBox="0 0 244 244" version="1.1" xmlns="http://www.w3.org/2000/svg" xmlns:xlink="http://www.w3.org/1999/xlink">
    <!-- Generator: Sketch 52.3 (67297) - http://www.bohemiancoding.com/sketch -->
    <title>quality</title>
    <desc>Created with Sketch.</desc>
    <g id="Page-1" stroke="none" stroke-width="1" fill="none" fill-rule="evenodd">
        <g id="Artboard" transform="translate(-1114.000000, -153.000000)">
            <g id="quality" transform="translate(1114.000000, 153.000000)">
                <path d="M228.751493,3.16044693e-14 L15.250679,3.16044693e-14 C6.84130445,3.16044693e-14 0,6.84130445 0,15.250679 L0,228.751493 C0,237.160868 6.84130445,244 15.250679,244 L228.751493,244 C237.160868,244 244,237.160868 244,228.751493 L244,15.250679 C244,6.84130445 237.160868,0 228.751493,0 Z M233.833604,228.751493 C233.833604,231.555342 231.55317,233.833604 228.751493,233.833604 L15.250679,233.833604 C12.44683,233.833604 10.166395,231.555342 10.166395,228.751493 L10.166395,50.834148 L233.833604,50.834148 L233.833604,228.751493 Z M233.833604,40.6677524 L10.166395,40.6677524 L10.166395,15.250679 C10.166395,12.4446578 12.44683,10.166395 15.250679,10.166395 L228.751493,10.166395 C231.55317,10.166395 233.833604,12.4446578 233.833604,15.250679 L233.833604,40.6677524 Z" id="Shape" fill="#D7D7FF" fill-rule="nonzero"></path>
                <polygon id="Path" fill="#D7D7FF" points="26 20 41 20 41 30 26 30"></polygon>
                <polygon id="Path" fill="#A7A5FF" points="56 20 71 20 71 30 56 30"></polygon>
                <polygon id="Path" fill="#D7D7FF" points="87 20 102 20 102 30 87 30"></polygon>
                <path d="M77.1602554,130.421666 C76.7203535,139.614499 82.4586737,147.727871 91.1173305,150.154483 C93.19053,150.735564 94.9893351,152.093597 96.1805539,153.973949 C97.6156785,156.25257 99.4994153,158.08069 101.611814,159.519247 L101.611814,218.902687 C101.611814,221.096431 103.01645,223.039897 105.096183,223.731972 C107.180271,224.43928 109.473421,223.712385 110.786593,221.956083 L122.001906,207.017729 L133.21504,221.956083 C134.197197,223.26406 135.71943,223.995308 137.291752,223.995308 C137.829651,223.995308 138.376261,223.910431 138.90545,223.731972 C140.985183,223.039897 142.389819,221.096431 142.389819,218.902687 L142.389819,159.562774 C144.508751,158.126393 146.379421,156.263452 147.821079,153.980478 C149.01012,152.093597 150.808925,150.735564 152.884303,150.154483 C161.542959,147.727871 167.283457,139.614499 166.8392,130.421666 C166.728136,128.112576 167.435898,125.853541 168.82529,124.068948 C174.39157,116.915339 174.39157,106.93032 168.82529,99.791946 C167.435898,98.0029995 166.728136,95.7439654 166.8392,93.4305226 C167.283457,84.2420416 161.547315,76.1286697 152.882125,73.7020581 C150.808925,73.1188006 149.012298,71.7607684 147.821079,69.8760632 C142.971273,62.1914295 133.419747,59.0161585 125.076861,62.2850114 C123.092949,63.0706677 120.908685,63.0663153 118.929128,62.2893643 C110.590597,58.9922187 101.03036,62.1957818 96.1805539,69.8760632 C94.9871575,71.7607684 93.19053,73.1188006 91.1151529,73.7020581 C82.4586737,76.1286697 76.7203535,84.2420416 77.1602554,93.434875 C77.2734974,95.7439654 76.5679127,98.0029995 75.1763427,99.7875931 C69.6078858,106.93032 69.6078858,116.915339 75.1763427,124.068948 C76.5679127,125.853541 77.2734974,128.112576 77.1602554,130.421666 Z M132.195862,203.620472 L126.078617,195.472279 C125.118238,194.188242 123.606893,193.433055 122.001906,193.433055 C120.39474,193.433055 118.885573,194.188242 117.925194,195.472279 L111.807948,203.620472 L111.807948,162.801158 C114.192564,162.849037 116.607667,162.483413 118.931305,161.567177 C120.91304,160.790226 123.092949,160.783697 125.074683,161.57153 C127.276369,162.43771 129.562986,162.849037 131.827826,162.849037 C131.949779,162.849037 132.071732,162.82945 132.195862,162.825098 L132.195862,203.620472 Z M83.2208797,106.046729 C86.1107277,102.333904 87.5741627,97.6787259 87.3433235,92.9430238 C87.136439,88.5947089 89.8782019,84.6316054 93.8656267,83.5107935 C98.3778845,82.2485205 102.2586,79.338762 104.800012,75.308192 C107.071385,71.7128888 111.333203,70.2351587 115.189964,71.7672976 C119.578091,73.4974824 124.417009,73.4974824 128.811669,71.7672976 L128.816024,71.7607684 C132.655363,70.2547455 136.925893,71.7063597 139.199444,75.308192 C141.738677,79.338762 145.623749,82.2485205 150.131651,83.5107935 C154.121254,84.6316054 156.867372,88.5947089 156.656132,92.9430238 C156.429648,97.6787259 157.893083,102.333904 160.780753,106.046729 C163.43323,109.452691 163.43323,114.40385 160.776398,117.816341 C157.893083,121.520461 156.429648,126.173462 156.656132,130.909164 C156.867372,135.261832 154.121254,139.224935 150.136006,140.345747 C145.625927,141.608021 141.743033,144.517779 139.199444,148.54182 C136.925893,152.143652 132.664075,153.606148 128.818202,152.093597 C126.618694,151.223063 124.308122,150.792149 121.999728,150.792149 C119.691333,150.792149 117.385117,151.223063 115.189964,152.089244 C111.354981,153.61703 107.073562,152.150181 104.800012,148.537467 C102.256422,144.513426 98.3735287,141.603668 93.8678043,140.345747 C89.8782019,139.224935 87.136439,135.261832 87.3433235,130.913517 C87.5763408,126.177815 86.1107277,121.520461 83.2230573,117.809812 C80.566226,114.40385 80.566226,109.452691 83.2208797,106.046729 Z" id="Shape" fill="#A7A5FF" fill-rule="nonzero"></path>
                <path d="M122,140 C137.438825,140 150,127.437138 150,111.998912 C150,96.5628617 137.438825,84 122,84 C106.559,84 94,96.5628617 94,111.998912 C94,127.437138 106.559,140 122,140 Z M122,94.1812248 C131.822729,94.1812248 139.81838,102.176565 139.81838,111.998912 C139.81838,121.823436 131.822729,129.8166 122,129.8166 C112.175095,129.8166 104.181621,121.823436 104.181621,111.998912 C104.181621,102.176565 112.175095,94.1812248 122,94.1812248 Z" id="Shape" fill="#A7A5FF" fill-rule="nonzero"></path>
            </g>
        </g>
    </g>
</svg>