<?xml version="1.0" encoding="UTF-8"?>
<svg width="224px" height="244px" viewBox="0 0 224 244" version="1.1" xmlns="http://www.w3.org/2000/svg" xmlns:xlink="http://www.w3.org/1999/xlink">
    <!-- Generator: Sketch 52.3 (67297) - http://www.bohemiancoding.com/sketch -->
    <title>verified-protection</title>
    <desc>Created with Sketch.</desc>
    <g id="Page-1" stroke="none" stroke-width="1" fill="none" fill-rule="evenodd">
        <g id="Artboard" transform="translate(-1114.000000, -543.000000)">
            <g id="verified-protection" transform="translate(1114.000000, 543.000000)">
                <path d="M223.942629,54.1616435 L223.618098,46.5196141 L216.017313,45.7382562 C186.821259,42.7366622 161.721745,31.8300844 145.806581,23.2091461 C128.375329,13.7669109 117.809044,4.90848271 117.712113,4.82672827 L112.005767,0 L106.295673,4.81975904 C106.190709,4.90821466 95.6244236,13.7669109 78.19344,23.2088781 C62.2782756,31.8298163 37.1790301,42.7363941 7.98297596,45.7379881 L0.381923206,46.5193461 L0.0573916975,54.1613755 C-0.000713366395,55.5294891 -1.221723,88.1224361 11.3193312,127.589457 C18.71956,150.879285 29.4066076,171.746502 43.0835221,189.614537 C60.2577188,212.050367 82.1633279,229.735861 108.191987,242.179154 L111.999877,244 L115.807766,242.179154 C141.836425,229.735861 163.742302,212.051171 180.916231,189.614537 C194.593413,171.747038 205.280461,150.879017 212.68069,127.589725 C225.221476,88.1229722 224.000734,55.5300251 223.942629,54.1616435 Z M111.999877,224.336852 C90.2854519,213.29089 71.9071147,198.098503 57.3238147,179.131742 C44.9013805,162.975189 35.1496371,144.018078 28.3387597,122.787925 C20.0144729,96.8387992 18.1476134,73.6966649 17.7697966,62.3330664 C29.4805108,60.592367 41.3194845,57.6634138 53.0700956,53.5955276 C64.5572258,49.6187774 75.9902673,44.5483941 87.0513829,38.5256386 C98.2747643,32.4146956 106.815138,26.577965 111.999609,22.761239 C117.18408,26.5776969 125.724721,32.4146956 136.948102,38.5256386 C148.009218,44.5486621 159.44226,49.6187774 170.92939,53.5955276 C182.683214,57.6647541 194.525669,60.5937073 206.239596,62.3344066 C205.875703,73.5864974 204.045527,96.4026862 195.839057,122.227706 C189.060044,143.562665 179.319547,162.614934 166.888276,178.854849 C152.270167,197.951345 133.819801,213.237012 111.999877,224.336852 Z" id="Shape" fill="#D7D7FF" fill-rule="nonzero"></path>
                <polygon id="Path" fill="#A7A5FF" points="160.472265 82 148.112305 94.2889023 102.04807 140.088577 78.7022827 116.877007 75.5277345 113.720709 69.2640015 119.948431 69.2640015 119.948698 63 126.176688 102.04807 165 173 94.4559784"></polygon>
            </g>
        </g>
    </g>
</svg>