<svg xmlns="http://www.w3.org/2000/svg" viewBox="0 0 468.22 94"><defs><style>.cls-1{fill:#4f3fc4;}.cls-2{fill:#fff;}</style></defs><title>Asset 2</title><g id="Layer_2" data-name="Layer 2"><g id="Layer_1-2" data-name="Layer 1"><rect class="cls-1" x="1" width="94" height="94"/><circle class="cls-2" cx="73" cy="86" r="6"/><circle class="cls-2" cx="31" cy="86" r="6"/><path class="cls-2" d="M33.16,26.27l2.59,14H74.54L70.1,63.56a.57.57,0,0,1-.55.44H32.61a.54.54,0,0,1-.54-.45l-2-10h0l0-.17L27.41,40.27h0L22.93,17.92,20.83,7.41H0v14H9.35l9,44.88A14.51,14.51,0,0,0,32.6,78h37A14.54,14.54,0,0,0,83.84,66.24l7.62-40Z"/><path d="M136.57,10.26h12.49V31.85q4.16-2.09,11.83-2.08a30.2,30.2,0,0,1,11.58,2.6,20.16,20.16,0,0,1,9.36,8.78,29.3,29.3,0,0,1,3.38,14.5q0,12.09-6.7,19.05t-18.79,7a26,26,0,0,1-13.26-3.9l-.14,4h-9.75ZM158,39.52a20.25,20.25,0,0,0-9,1.69V69.44a14.93,14.93,0,0,0,8.58,2.47q7.16,0,11-4t3.84-11.64Q172.47,39.52,158,39.52Z"/><path d="M191.19,21.05a7.62,7.62,0,0,1-2.34-5.59,7.59,7.59,0,0,1,2.34-5.66,7.78,7.78,0,0,1,5.6-2.27,7.77,7.77,0,0,1,7.93,7.93,7.72,7.72,0,0,1-2.28,5.59,7.55,7.55,0,0,1-5.65,2.34A7.65,7.65,0,0,1,191.19,21.05Zm-.65,60.74H203V31.85H190.54Z"/><path d="M244.65,10.26h12.48V81.79h-9.88v-4a26.19,26.19,0,0,1-13.4,3.9q-11.7,0-18.6-6.76t-6.89-18q0-9,3.9-14.83a24.08,24.08,0,0,1,8.91-8.19,24.46,24.46,0,0,1,11.64-2.86q7.68,0,11.84,2.08Zm-9,30.56q-14.43,0-14.43,16.78,0,7,3.9,10.66t10.92,3.65a15,15,0,0,0,8.59-2.47V42.51A20.33,20.33,0,0,0,235.67,40.82Z"/><path d="M260.9,31.85h39.28l.13,6.63L278.85,71.26h24.32l.13,10.53H262.85V75.42l21.2-32.65H260.77Z"/><path d="M347.26,43.42q-4.81-1.56-7.09-2.08a24.13,24.13,0,0,0-5.26-.52q-7.43,0-11.25,3.77t-3.84,11.19q0,7.15,4.1,11.64t11,4.49a24.13,24.13,0,0,0,5.26-.52c1.52-.35,3.88-1,7.09-2.09v9.89a39,39,0,0,1-14.43,2.6q-11.71,0-18.8-7.15t-7.09-18.86q0-11.7,6.9-18.21t19-6.5a37.1,37.1,0,0,1,14.43,2.47Z"/><path d="M354.8,33.67a46.37,46.37,0,0,1,8.52-1.89,65.11,65.11,0,0,1,8.52-.71q12.11,0,17.37,4.48t5.26,14.64v31.6H383.29l-.13-4.42q-5.87,4.68-14.57,4.68-8.07,0-12.88-4.1a13.42,13.42,0,0,1-4.81-10.73,13.5,13.5,0,0,1,5.4-11.38q5.4-4.1,15.41-4.61l9.76-.52c0-3.21-.31-5.42-.91-6.64a5.14,5.14,0,0,0-3.26-2.86,25.47,25.47,0,0,0-7.41-.78,56.19,56.19,0,0,0-7.87.65,35.6,35.6,0,0,0-7.22,1.69ZM382,59.16l-8.85.65q-5.07.39-7.41,1.95a5.13,5.13,0,0,0-2.34,4.55A5.56,5.56,0,0,0,365.6,71a9.88,9.88,0,0,0,6.11,1.69,21.47,21.47,0,0,0,5.14-.52A22,22,0,0,0,382,69.83Z"/><path d="M398.11,81.79h12.36v-38a26,26,0,0,1,8.19-1.43,20.88,20.88,0,0,1,10.15,2.34V32.5a29.44,29.44,0,0,0-5.59-.65H422a43.14,43.14,0,0,0-16.77,3Q398,38,398.11,44.72Z"/><path d="M468.09,70.09v9.36l-6.9,1.69a31,31,0,0,1-4.81.52q-9.75,0-13.85-4t-4.1-13.14V41.6h-8.32V31.85h8.32V17.54h12.49V31.85h17.3V41.6h-17.3V64.23q0,7.29,8.19,7.29A39.87,39.87,0,0,0,468.09,70.09Z"/></g></g></svg>