<?xml version="1.0" encoding="UTF-8"?>
<svg width="108px" height="71px" viewBox="0 0 108 71" version="1.1" xmlns="http://www.w3.org/2000/svg" xmlns:xlink="http://www.w3.org/1999/xlink">
    <!-- Generator: Sketch 52.3 (67297) - http://www.bohemiancoding.com/sketch -->
    <title>Group</title>
    <desc>Created with Sketch.</desc>
    <defs>
        <polyline id="path-1" points="88.709 18.07 0.293 18.07 0.293 0.268 63.555 0.268 67.433 7.387 67.613 7.459 68.112 6.952 69.395 6.262 69.404 6.1 69.243 5.802 69.278 5.767 69.305 5.596 66.427 0.268 97.691 0.268 97.691 4.731 88.709 18.07"></polyline>
    </defs>
    <g id="Page-1" stroke="none" stroke-width="1" fill="none" fill-rule="evenodd">
        <g id="Group">
            <polygon id="Fill-1381" fill="#C4CFD6" points="5.292 63.86 102.716 63.86 102.716 58.925 5.292 58.925"></polygon>
            <polygon id="Fill-1382" fill="#E8E8E8" points="5.293 60.08 102.691 60.08 102.691 24.503 5.293 24.503"></polygon>
            <g id="Group-1388" transform="translate(5.000000, 25.000000)">
                <mask id="mask-2" fill="white">
                    <use xlink:href="#path-1"></use>
                </mask>
                <g id="Clip-1387"></g>
                <polyline id="Fill-1386" mask="url(#mask-2)" points="88.709 18.07 0.293 18.07 0.293 0.268 63.555 0.268 67.433 7.387 67.613 7.459 68.112 6.952 69.395 6.262 69.404 6.1 69.243 5.802 69.278 5.767 69.305 5.596 66.427 0.268 97.691 0.268 97.691 4.731 88.709 18.07"></polyline>
            </g>
            <polyline id="Fill-1389" fill="#FFFFFE" points="2.764 21.389 105.058 21.389 107.101 22.217 107.101 24.026 0.379 24.026 0.379 22.217 2.764 21.389"></polyline>
            <polygon id="Fill-1390" fill="#C4CFD6" points="0.271 25.268 107.101 25.268 107.101 22.217 0.271 22.217"></polygon>
            <path d="M80.028,29.477 C79.695,29.535 79.009,29.664 78.675,29.664 C78.339,29.658 77.864,30.097 77.046,30.209 C76.834,30.237 76.632,30.345 76.868,30.45 C77.105,30.552 77.708,30.45 78.046,30.505 C78.46,30.571 77.492,31.188 77.238,31.367 C77.02,31.519 75.861,32.569 75.995,32.707 C76.245,32.963 77.556,31.739 77.492,31.877 C77.451,31.967 75.881,33.016 76.066,33.138 C76.46,33.404 77.553,32.228 77.842,32.276 C77.842,32.276 77.472,32.496 77.163,32.776 C76.878,33.033 76.543,33.146 76.564,33.271 C76.622,33.697 78.529,32.244 78.432,32.548 C78.394,32.671 77.089,33.081 77.344,33.244 C77.469,33.323 79.043,32.747 79.043,32.747 C79.043,32.747 80.889,31.577 81.443,31.011 C81.777,30.672 83.116,30.107 83.116,30.107 L82.088,28.37 C82.088,28.37 80.593,29.374 80.028,29.477" id="Fill-1391" fill="#C0917E"></path>
            <path d="M87.523,13.502 C87.89,11.802 89.363,11.697 90.021,12.474 C90.532,13.075 91.063,13.62 91.106,15.35 C91.202,18.987 89.896,24.87 88.915,27.068 C88.607,27.764 83.124,31.003 82.088,30.651 C81.658,30.508 80.458,29.996 80.028,29.477 C83.224,27.189 85.419,24.295 85.585,23.735 C86.402,20.967 87.523,13.502 87.523,13.502" id="Fill-1392" fill="#29316D"></path>
            <path d="M99.172,68.414 L95.127,45.263 C94.457,41.616 92.943,39.823 89.63,39.549 C86.877,39.66 84.354,40.681 83.49,45.273 L78.99,68.422 L78.99,68.424 C78.936,68.707 78.661,68.892 78.379,68.837 C78.095,68.78 77.909,68.507 77.966,68.224 L82.466,45.084 C83.312,40.069 86.574,38.522 89.655,38.508 C93.473,38.733 95.542,41.21 96.155,45.086 L100.2,68.234 C100.248,68.519 100.059,68.789 99.774,68.84 L99.686,68.847 C99.436,68.847 99.215,68.667 99.172,68.414" id="Fill-1393" fill="#23252B"></path>
            <path d="M82.61,58.918 L80.06,58.229 C79.868,58.177 79.754,57.981 79.807,57.788 C79.859,57.597 80.055,57.483 80.249,57.536 L82.8,58.224 C82.991,58.276 83.105,58.474 83.053,58.665 C83.009,58.825 82.865,58.931 82.706,58.931 L82.61,58.918" id="Fill-1394" fill="#121519"></path>
            <path d="M100.131,58.438 L97.581,57.75 C97.389,57.699 97.275,57.501 97.328,57.309 C97.379,57.117 97.576,57.003 97.769,57.056 L100.318,57.743 C100.511,57.796 100.624,57.992 100.571,58.184 C100.527,58.345 100.382,58.451 100.224,58.451 L100.131,58.438" id="Fill-1395" fill="#121519"></path>
            <path d="M81.618,49.72 C81.618,49.72 78.397,50.287 78.87,51.741 C79.544,53.812 78.049,55.886 76.41,57.855 C75.844,58.535 75.836,58.845 75.923,59.196 C75.966,59.483 76.106,59.856 76.571,59.998 C77.368,60.241 79.72,59.108 81.36,57.5 C81.806,57.061 81.667,56.353 83.23,55.985 C83.491,55.923 84.277,55.155 84.277,55.155 C84.277,55.155 84.117,54.183 83.631,53.375 C83.205,52.093 82.205,50.469 81.618,49.72" id="Fill-1396" fill="#121519"></path>
            <path d="M74.826,61.972 C74.826,61.972 71.787,59.964 70.673,61.171 C68.463,63.562 66.656,63.419 64.554,63.56 C63.612,63.622 63.129,63.869 62.878,64.172 C62.66,64.388 62.422,64.75 62.595,65.242 C62.892,66.088 65.256,67.885 68.451,67.507 C69.122,67.427 69.396,67.238 69.758,67.655 C69.947,67.872 71.144,68.035 71.144,68.035 C71.144,68.035 72.241,67.432 72.639,66.492 C73.474,65.313 74.553,62.958 74.826,61.972" id="Fill-1397" fill="#121519"></path>
            <path d="M102.244,70.571 L97.96,45.169 C97.247,41.15 95.626,39.172 92.126,38.875 C89.221,38.993 86.534,40.119 85.611,45.18 L80.848,70.582 L80.85,70.582 C80.793,70.875 80.511,71.069 80.218,71.015 C79.925,70.959 79.73,70.677 79.787,70.384 L84.548,44.989 C85.444,39.514 88.883,37.814 92.153,37.798 C96.199,38.051 98.376,40.752 99.025,44.991 L103.31,70.395 C103.357,70.688 103.16,70.966 102.866,71.017 L102.777,71.023 C102.518,71.023 102.288,70.837 102.244,70.571" id="Fill-1398" fill="#23252B"></path>
            <path d="M100.466,39.256 C100.466,38.423 99.856,37.746 99.103,37.746 L82.949,37.746 C82.195,37.746 81.583,38.423 81.583,39.256 C81.583,39.824 81.872,40.313 82.291,40.571 C82.925,41.163 86.6,41.616 91.054,41.616 C95.721,41.616 99.538,41.117 99.892,40.484 C100.237,40.211 100.466,39.766 100.466,39.256" id="Fill-1399" fill="#6D224D"></path>
            <path d="M99.727,38.03 C99.727,38.561 95.832,38.99 91.028,38.99 C86.22,38.99 82.323,38.561 82.323,38.03 C82.323,37.501 86.22,37.07 91.028,37.07 C95.832,37.07 99.727,37.501 99.727,38.03" id="Fill-1400" fill="#8B2D66"></path>
            <path d="M89.218,28.002 C89.036,28.548 86.967,30.792 86.668,30.792 C82.986,30.792 77.545,31.391 72.806,32.531 C70.418,33.104 70.462,35.771 70.886,37.151 C72.955,43.902 76.046,52.677 76.046,53.743 C78.176,54.198 83.066,50.861 83.066,50.861 C83.066,50.861 81.056,42.793 78.836,38.892 C78.196,37.768 94.069,39.525 94.676,37.092 C95.285,34.656 89.218,28.002 89.218,28.002" id="Fill-1401" fill="#121519"></path>
            <path d="M87.36,14.087 C86.688,14.529 85.848,15.285 85.699,17 C85.516,19.146 84.752,21.254 84.752,21.254 L86.942,21.957 L87.36,14.087" id="Fill-1402" fill="#FFD357"></path>
            <path d="M98.457,31.783 C98.546,37.183 96.837,38.172 94.676,38.531 C92.209,38.943 81.54,47.673 81.056,49.122 C79.257,54.523 76.86,63.489 73.679,65.83 C72.376,66.789 68.334,62.488 68.334,62.488 C68.334,62.488 74.996,48.942 75.176,45.882 C75.355,42.823 77.201,41.688 78.416,40.603 C80.649,38.607 83.504,35.583 86.937,33.102 C88.667,31.853 90.536,28.301 90.536,28.301 L98.457,31.783" id="Fill-1403" fill="#23252B"></path>
            <path d="M85.805,4.392 C85.807,3.717 86.504,3.366 86.904,3.712 C87.311,4.07 87.939,5.774 87.215,6.366 C86.494,6.96 85.805,4.392 85.805,4.392" id="Fill-1404" fill="#D2AC9C"></path>
            <path d="M91.51,8.262 C92.854,8.61 93.943,9.511 95.57,10.974 C96.371,11.697 98.01,13.667 99.342,19.168 C100.346,23.309 100,33.245 98.607,37.06 C98.422,37.562 97.729,37.137 94.912,35.849 C93.219,35.077 91.821,33.277 87.402,32.094 C85.848,31.678 89.488,25.453 88.171,23.05 C86.684,20.343 86.799,17.183 86.985,15.481 C87.29,12.706 91.51,8.262 91.51,8.262" id="Fill-1405" fill="#5950CC"></path>
            <path d="M86.823,10.389 C85.944,11.373 84.767,16.06 87.148,16.021 C89.528,15.983 90.721,12.771 90.396,12.288 C90.07,11.806 86.823,10.389 86.823,10.389" id="Fill-1406" fill="#D3482B"></path>
            <path d="M86.656,4.687 C87.077,5.552 89.83,7.993 91.038,8.812 C92.243,9.63 89.769,11.732 89.769,11.732 L88.431,14.123 C88.431,14.123 86.607,12.482 85.598,12.054 C84.589,11.626 86.656,4.687 86.656,4.687" id="Fill-1407" fill="#C0917E"></path>
            <path d="M81.958,2.669 C80.201,3.769 79.788,4.948 81.063,7.785 C81.145,7.966 81.569,8.217 81.658,8.387 L81.716,8.495 C81.898,9.29 82.1,10.537 82.234,10.693 C82.345,10.817 82.771,10.761 83.104,10.604 C83.41,10.974 83.698,11.255 83.944,11.516 C84.566,12.192 84.78,12.327 85.031,12.229 C85.967,11.851 86.765,10.975 87.573,10.208 C88.68,9.156 87.614,7.227 86.976,5.754 C85.916,3.321 84.207,1.262 81.958,2.669" id="Fill-1408" fill="#C0917E"></path>
            <path d="M85.794,7.756 C85.76,8.205 85.882,9.833 85.798,10.192 C85.713,10.555 84.252,11.902 84.252,11.902 C84.252,11.902 84.703,13.565 85.5,13.496 C86.091,13.443 87.168,11.468 87.288,11.161 C87.406,10.854 86.382,7.276 86.219,6.951 C86.057,6.628 85.794,7.756 85.794,7.756" id="Fill-1409" fill="#121519"></path>
            <path d="M80.264,5.714 C79.712,5.585 80.112,5.524 79.346,5.229 C79.043,5.11 78.738,4.562 78.738,4.562 L80.038,4.004 C80.038,4.004 79.112,4.445 78.732,4.33 C78.638,4.303 80.697,2.704 80.697,2.704 C80.697,2.704 81.841,1.104 83.944,0.445 C85.338,0.012 85.878,0.474 85.878,0.474 C85.878,0.474 89.071,0.525 89.602,5.185 C89.602,5.185 89.637,6.713 90.466,6.908 C90.08,7.617 88.004,7.933 88.004,7.933 C88.004,7.933 87.17,7.078 87.098,6.518 C86.939,5.319 85.812,5.424 85.77,5.922 C85.751,6.099 86.213,6.692 86.105,6.892 C86.008,7.069 85.801,8.104 85.75,7.939 C85.139,6.049 83.075,5.085 82.438,5.007 C81.8,4.932 83.323,3.063 83.783,2.66 C84.239,2.257 82.883,3.111 82.104,4.793 C81.948,5.135 80.264,5.714 80.264,5.714" id="Fill-1410" fill="#121519"></path>
            <path d="M85.543,5.563 C85.682,5.272 86.272,4.649 86.668,5.237 C87.065,5.824 87.455,7.311 86.911,7.573 C86.373,7.837 85.543,5.563 85.543,5.563" id="Fill-1411" fill="#C0917E"></path>
            <path d="M87.455,14.205 C86.502,14.971 86.842,20.443 86.49,23.104 C86.439,23.491 88.993,23.479 88.993,23.479 C88.993,23.479 88.394,14.678 89.317,13.574 C90.24,12.472 87.455,14.205 87.455,14.205" id="Fill-1412" fill="#FFDD57"></path>
            <path d="M90.213,10.379 L86.504,14.205 C87.632,16.852 93.569,11.507 92.991,8.73 C92.752,7.594 90.643,7.687 90.643,7.687 L90.213,10.379" id="Fill-1413" fill="#FFDD57"></path>
            <path d="M89.539,7.594 C89.924,8.216 86.477,14.128 86.477,14.128 C86.477,14.128 91.912,10.923 91.595,8.064 C91.445,6.716 89.539,7.594 89.539,7.594" id="Fill-1414" fill="#FFD357"></path>
            <path d="M74.305,30.596 L74.278,30.767 L72.613,32.459 L72.433,32.387 L66.673,21.812 C66.574,21.605 66.727,21.452 66.799,21.443 L69.166,21.299 L69.346,21.416 L74.305,30.596" id="Fill-1415" fill="#FFFFFE"></path>
            <path d="M74.404,31.1 L74.395,31.262 L72.721,32.162 L72.559,32.072 L67.006,21.758 C66.961,21.686 66.943,21.524 67.078,21.515 L69.076,21.398 L69.238,21.515 L74.404,31.1" id="Fill-1416" fill="#23252B"></path>
            <path d="M86.085,31.017 C86.146,31.064 86.119,31.11 86.025,31.116 L72.754,32.195 C72.639,32.206 72.597,32.16 72.661,32.097 L74.162,30.613 L74.383,30.537 L84.442,29.845 L84.643,29.889 L86.085,31.017" id="Fill-1417" fill="#F1F5F3"></path>
            <polyline id="Fill-1418" fill="#676B71" points="72.154 29.876 68.491 23.225 69.49 23.018 72.955 29.291 72.154 29.876"></polyline>
            <path d="M86.16,31.4 C86.164,31.483 86.093,31.558 85.998,31.565 L72.703,32.541 C72.609,32.548 72.528,32.485 72.521,32.401 L72.514,32.264 C72.505,32.18 72.577,32.105 72.672,32.099 L85.967,31.122 C86.061,31.115 86.142,31.178 86.148,31.261 L86.16,31.4" id="Fill-1419" fill="#FFFFFE"></path>
            <polyline id="Fill-1420" fill="#23252B" points="75.063 30.772 74.231 31.786 80.802 31.303 81.01 30.366 75.063 30.772"></polyline>
            <path d="M83.675,30.069 C83.28,30.104 82.67,30.237 82.094,30.281 C81.696,30.31 81.232,30.366 80.052,31.078 C79.834,31.209 79.271,31.329 79.512,31.516 C79.749,31.703 80.748,31.403 81.101,31.212 C81.236,31.141 80.387,31.54 80.042,31.671 C79.914,31.717 79.571,31.908 79.157,32.083 C78.626,32.311 78.058,32.388 78.087,32.513 C78.188,32.941 80.264,32.173 80.152,32.313 C80.075,32.403 77.932,32.721 78.108,32.916 C78.478,33.335 80.01,32.794 80.394,32.759 C80.394,32.759 80.06,32.882 79.585,33.015 C79.214,33.117 78.466,33.028 78.448,33.177 C78.395,33.68 80.717,33.084 80.813,33.144 C80.943,33.221 79.122,33.294 79.364,33.554 C79.484,33.682 81.339,33.487 81.339,33.487 C81.339,33.487 83.814,32.676 84.613,32.194 C85.092,31.907 86.847,30.776 86.847,30.776 L85.35,29.265 C85.35,29.265 84.275,30.014 83.675,30.069" id="Fill-1421" fill="#C0917E"></path>
            <path d="M91.52,14.161 C91.924,12.29 94.009,11.792 94.895,12.477 C95.836,13.205 96.315,14.078 96.364,15.979 C96.47,19.98 94.174,23.512 93.095,25.929 C92.754,26.696 87.012,32.612 86.153,32.612 C85.657,32.612 84.53,30.357 84.056,29.785 C87.098,26.657 89.526,23.315 89.702,22.7 C90.611,19.552 91.52,14.161 91.52,14.161" id="Fill-1422" fill="#3D368F"></path>
            <path d="M15.006,67.944 C14.743,67.895 14.571,67.641 14.624,67.38 L18.749,45.893 C19.525,41.242 22.519,39.801 25.354,39.788 C28.862,39.998 30.762,42.298 31.322,45.895 L35.036,67.389 C35.08,67.65 34.904,67.9 34.644,67.944 C34.38,67.988 34.132,67.813 34.088,67.552 L30.373,46.057 C29.757,42.665 28.365,41.001 25.33,40.749 C22.806,40.85 20.493,41.798 19.696,46.066 L15.568,67.561 L15.57,67.561 C15.525,67.793 15.321,67.953 15.094,67.953 L15.006,67.944" id="Fill-1423" fill="#23252B"></path>
            <path d="M29.967,53.213 C29.967,53.213 32.667,52.028 33.042,53.354 C33.568,55.247 35.728,56.056 37.945,56.716 C38.707,56.942 38.869,57.17 38.979,57.479 C39.091,57.715 39.171,58.065 38.892,58.404 C38.416,58.985 36.085,59.312 34.047,58.923 C33.495,58.815 33.243,58.219 31.888,58.723 C31.659,58.806 30.687,58.622 30.687,58.622 C30.687,58.622 30.32,57.814 30.281,56.964 C29.96,55.787 29.9,54.067 29.967,53.213" id="Fill-1424" fill="#23252B"></path>
            <path d="M26.18,32.955 C23.211,31.044 24.979,29.015 24.979,29.015 C25.313,29.015 27.145,31.037 28.464,31.242 C32.571,31.88 41.417,34.939 41.858,35.269 C42.887,36.041 43.803,38.213 42.543,40.438 C41.803,41.753 36.461,54.376 36.461,55.061 C36.461,55.746 30.634,53.09 30.634,53.09 C30.634,53.09 37.745,36.124 36.204,35.954 C35.533,35.88 28.464,34.427 26.18,32.955" id="Fill-1425" fill="#5950CC"></path>
            <path d="M28.59,53.236 C28.59,53.236 31.388,53.269 31.327,54.644 C31.263,56.017 31.724,58.331 34.232,58.46 C35.022,58.5 35.18,59.612 35.151,59.937 C35.155,60.195 35.083,60.552 34.689,60.743 C34.014,61.072 30.594,61.839 28.91,59.731 C28.558,59.285 28.505,59.015 28.044,59.045 C27.806,59.066 26.994,58.458 26.994,58.458 C26.994,58.458 26.76,57.396 27.077,56.603 C27.271,55.404 28.171,53.988 28.59,53.236" id="Fill-1426" fill="#0A0B09"></path>
            <path d="M32.52,44.095 C31.834,44.693 27.437,52.633 27.264,54.261 C28.892,56.147 32.834,57.689 33.091,57.689 C33.349,57.689 35.775,50.262 35.775,50.262 L32.52,44.095" id="Fill-1427" fill="#29316D"></path>
            <path d="M14.472,60.078 C14.396,59.906 14.477,59.707 14.646,59.632 L16.617,58.776 C16.789,58.703 16.988,58.782 17.063,58.952 C17.139,59.124 17.06,59.323 16.888,59.398 L14.917,60.254 L14.782,60.282 C14.651,60.282 14.526,60.206 14.472,60.078" id="Fill-1428" fill="#121519"></path>
            <path d="M24.694,9.923 C25.539,9.597 26.504,7.561 26.509,7.486 C26.528,6.409 26.749,4.92 27.032,3.61 C27.032,3.61 28.792,3.8 29.923,3.992 C30.735,2.872 31.834,2.298 33.26,3.007 C35.043,3.889 35.55,4.976 34.604,7.807 C34.542,7.985 33.967,8.486 33.956,8.527 C33.756,9.556 33.851,10.434 33.737,10.598 C33.646,10.725 33.26,10.812 32.925,10.693 C32.665,11.074 32.286,11.451 32.08,11.723 C31.546,12.429 31.235,12.452 30.981,12.38 C30.521,12.242 30.301,12.218 29.895,11.865 C28.967,12.407 27.359,14.612 27.359,14.612 L25.507,12.507 C25.507,12.507 23.388,10.426 24.694,9.923" id="Fill-1429" fill="#C0917E"></path>
            <path d="M35.078,6.067 C35.783,5.936 36.216,5.334 36.404,4.99 C36.901,4.092 36.31,2.433 36.31,2.433 L35.328,3.992 C35.328,3.992 35.61,3.688 35.792,3.157 C36.005,2.53 35.893,1.244 35.824,1.705 C35.615,3.127 34.381,3.096 34.381,3.096 C32.629,0.669 35.964,2.143 31.223,1.163 C29.852,0.883 28.938,1.482 28.938,1.482 C28.938,1.482 25.49,1.749 25.32,8.811 C25.32,8.811 27.45,7.988 27.878,7.649 C29.542,6.327 29.354,7.194 29.704,6.911 C30.419,6.338 31.637,6.163 31.684,6.396 C31.715,6.564 32.242,5.193 33.257,5.64 C33.589,5.785 35.078,6.067 35.078,6.067" id="Fill-1430" fill="#91533B"></path>
            <path d="M29.364,2.18 C30.102,1.564 31.303,1.661 32.47,2.835 C31.805,2.417 31.393,1.926 30.523,2.258 C29.651,2.593 29.364,2.18 29.364,2.18" id="Fill-1431" fill="#AE724A"></path>
            <path d="M33.216,3.054 C34.437,3.487 35.479,2.516 35.779,1.356 C35.713,2.612 35.127,4.029 33.802,3.74 C32.781,3.518 33.216,3.054 33.216,3.054" id="Fill-1432" fill="#AE724A"></path>
            <path d="M31.322,3.066 C34.326,5.592 35.967,4.132 35.946,2.436 C36.407,3.784 35.685,5.222 34.919,5.231 C33.625,5.247 31.322,3.066 31.322,3.066" id="Fill-1433" fill="#AE724A"></path>
            <path d="M32.509,2.09 C33.472,2.237 34.16,1.38 34.465,1.092 C34.577,1.31 34.141,1.752 34.141,1.752 C34.141,1.752 34.708,1.376 34.9,0.87 C35.3,1.502 34.952,1.769 34.689,1.965 C35.256,1.59 35.18,1.117 35.18,1.117 C35.18,1.117 35.339,3.155 34.504,3.341 C33.329,3.604 31.868,2.139 31.692,1.942 C31.516,1.748 32.509,2.09 32.509,2.09" id="Fill-1434" fill="#AE724A"></path>
            <path d="M35.572,1.348 C35.444,1.775 35.091,3.105 34.053,3.337 C34.437,3.443 35.314,2.499 35.436,2.257 C35.553,2.018 35.572,1.348 35.572,1.348" id="Fill-1435" fill="#91533B"></path>
            <path d="M34.712,0.982 C34.689,1.209 33.96,2.713 33.014,2.538 C32.737,2.477 33.094,2.676 33.213,2.688 C34.12,2.79 34.359,1.893 34.579,1.446 C34.771,1.053 34.712,0.982 34.712,0.982" id="Fill-1436" fill="#91533B"></path>
            <path d="M28.818,2.184 C28.879,1.397 29.768,0.584 30.992,0.858 C30.992,0.858 30.487,0.665 30.077,1.172 C29.669,1.677 29.837,1.27 29.837,1.27 C29.837,1.27 30.01,0.756 31.749,1.092 C30.863,1.121 31.258,1.313 30.821,1.536 C30.387,1.757 28.818,2.184 28.818,2.184" id="Fill-1437" fill="#91533B"></path>
            <path d="M29.869,6.718 C30.023,5.961 29.074,5.56 28.752,6.157 C28.428,6.758 28.198,8.212 28.744,8.411 C29.283,8.609 29.869,6.718 29.869,6.718" id="Fill-1438" fill="#C0917E"></path>
            <path d="M24.934,9.402 C24.501,9.51 23.767,10.008 22.532,10.674 C21.972,10.978 23.892,15.162 24.969,15.945 C26.043,16.729 29.122,16.629 29.122,16.629 L28.922,13.816 L24.934,9.402" id="Fill-1439" fill="#D9DEDE"></path>
            <path d="M32.429,69.995 L28.55,45.811 C27.903,41.974 26.434,40.107 23.298,39.83 C20.687,39.943 18.268,40.991 17.426,45.821 L13.108,70.004 L13.11,70.004 C13.06,70.289 12.787,70.477 12.504,70.428 C12.218,70.375 12.029,70.104 12.081,69.821 L16.396,45.646 C17.197,40.442 20.334,38.804 23.325,38.786 C27.028,39.034 28.997,41.623 29.58,45.648 L33.464,69.83 C33.508,70.115 33.313,70.384 33.029,70.43 L32.948,70.437 C32.693,70.437 32.471,70.252 32.429,69.995" id="Fill-1440" fill="#23252B"></path>
            <path d="M32.688,39.728 C32.688,38.935 32.124,38.291 31.427,38.291 L16.515,38.291 C15.82,38.291 15.254,38.935 15.254,39.728 C15.254,40.269 15.52,40.733 15.906,40.979 C16.492,41.543 19.886,41.975 23.997,41.975 C28.306,41.975 31.83,41.5 32.156,40.897 C32.478,40.636 32.688,40.213 32.688,39.728" id="Fill-1441" fill="#6D224D"></path>
            <path d="M32.003,38.561 C32.003,39.065 28.408,39.475 23.972,39.475 C19.535,39.475 15.938,39.065 15.938,38.561 C15.938,38.057 19.535,37.647 23.972,37.647 C28.408,37.647 32.003,38.057 32.003,38.561" id="Fill-1442" fill="#8B2D66"></path>
            <path d="M15.04,30.214 C15.04,30.214 14.525,34.154 16.582,37.24 C18.738,40.475 35.454,40.072 34.574,41.066 C33.691,42.066 32.806,41.98 29.95,48.664 C29.95,48.664 31.162,56.237 33.976,55.232 C35.86,50.296 38.422,44.996 39.944,43.094 C41.658,40.952 42.045,39.553 41.643,38.524 C41.304,37.646 36.403,35.412 27.807,31.414 C26.863,30.975 26.607,28.672 26.093,28.586 C23.18,28.099 15.04,30.214 15.04,30.214" id="Fill-1443" fill="#5950CC"></path>
            <path d="M45.397,20.372 L45.469,20.534 L47.539,21.704 L47.692,21.578 L50.293,9.824 C50.329,9.599 50.14,9.491 50.068,9.509 L47.755,10.022 L47.611,10.184 L45.397,20.372" id="Fill-1444" fill="#121519"></path>
            <path d="M45.442,20.885 L45.496,21.038 L47.35,21.434 L47.485,21.308 L49.96,9.869 C49.978,9.788 49.96,9.626 49.816,9.653 L47.863,10.094 L47.746,10.247 L45.442,20.885" id="Fill-1445" fill="#23252B"></path>
            <path d="M34.039,21.578 C33.976,21.623 34.003,21.65 34.102,21.65 L47.503,21.425 C47.611,21.416 47.656,21.389 47.584,21.344 L45.487,20.399 L45.262,20.363 L35.695,20.534 L35.497,20.579 L34.039,21.578" id="Fill-1446" fill="#121519"></path>
            <polyline id="Fill-1447" fill="#676B71" points="47.125 20.246 46.144 19.931 47.917 11.768 48.934 11.678 47.125 20.246"></polyline>
            <path d="M34.028,21.782 C34.028,21.866 34.106,21.934 34.201,21.933 L47.532,21.824 C47.625,21.824 47.7,21.754 47.7,21.672 L47.7,21.532 C47.7,21.446 47.622,21.379 47.526,21.381 L34.196,21.488 C34.104,21.489 34.026,21.559 34.027,21.643 L34.028,21.782" id="Fill-1448" fill="#23252B"></path>
            <polyline id="Fill-1449" fill="#8E8A8F" points="44.545 20.478 45.791 21.138 39.689 21.182 39.172 20.503 44.545 20.478"></polyline>
            <polyline id="Fill-1450" fill="#23252B" points="47.534 12.885 48.899 12.85 48.799 13.478 47.328 13.456 47.534 12.885"></polyline>
            <polyline id="Fill-1451" fill="#23252B" points="46.593 17.254 47.908 17.404 47.856 17.718 46.514 17.548 46.593 17.254"></polyline>
            <polyline id="Fill-1452" fill="#23252B" points="46.41 17.918 47.7 18.132 47.646 18.447 46.331 18.211 46.41 17.918"></polyline>
            <path d="M42.04,20.154 C42.098,20.464 42.339,21.004 42.114,20.905 C41.891,20.805 41.938,20.636 41.731,20.47 C41.527,20.298 41.206,19.683 41.206,19.683 C41.206,19.683 42.013,20.765 41.804,20.852 C41.597,20.937 40.917,20.012 40.917,20.012 C40.917,20.012 41.341,20.681 41.241,20.653 L41.073,20.628 C40.948,20.554 40.794,20.381 40.65,20.251 C40.431,20.053 39.186,19.585 39.455,19.405 C39.724,19.229 40.312,18.963 40.976,19.301 C41.643,19.641 42.04,20.154 42.04,20.154" id="Fill-1453" fill="#D2AC9C"></path>
            <path d="M38.08,18.773 C39.01,18.706 40.698,18.788 41.11,18.948 C41.521,19.11 42.324,19.635 42.324,19.635 C42.324,19.635 43.103,20.503 42.762,20.613 C42.591,20.67 42.196,20.006 41.989,19.924 C41.789,19.839 41.204,19.6 41.204,19.6 L40.08,19.703 C40.08,19.703 41.423,19.893 41.412,20.1 C41.403,20.312 41.284,20.305 40.792,20.278 C40.307,20.254 39.807,20.51 39.38,20.525 C38.673,20.549 38.575,20.424 38.146,20.312 C37.804,20.22 36.146,20.745 36.146,20.745 L35.989,19.125 L38.08,18.773" id="Fill-1454" fill="#C0917E"></path>
            <path d="M26.164,14.577 C26.293,14.553 28.679,19.658 29.092,19.646 C30.877,19.595 34.689,18.961 35.262,19.017 L36.889,18.839 C36.889,18.839 36.781,19.224 36.952,21.31 C36.966,21.462 35.938,21.482 35.859,21.473 C35.781,21.467 28.127,23.638 26.627,21.966 C25.13,20.296 26.164,14.577 26.164,14.577" id="Fill-1455" fill="#D9DEDE"></path>
            <path d="M28.766,14.596 C25.769,11.997 23.292,10.069 23.292,10.069 C23.292,10.069 18.392,11.966 16.44,19.453 C13.89,29.241 14.467,34.329 14.467,34.329 C14.467,34.329 19.126,35.24 21.194,33.643 C24.319,31.226 28.273,31.086 28.273,31.086 C28.273,31.086 26.571,26.626 27.059,25.161 C27.55,23.697 28.836,21.797 29.079,20.273 C29.415,18.18 29.189,14.962 28.766,14.596" id="Fill-1456" fill="#121519"></path>
            <path d="M26.171,11.131 C25.791,12.399 24.757,14.177 24.757,14.177 C24.757,14.177 25.288,20.637 25.154,21.574 C25.019,22.512 23.996,24.905 24.398,27.154 C24.798,29.407 25.375,31.537 25.375,31.537 L28.273,31.086 C28.273,31.086 26.479,26.99 27.059,25.161 C27.638,23.331 29.171,20.749 29.201,18.435 C29.234,16.119 28.766,14.608 28.729,14.234 C28.663,13.592 26.171,11.131 26.171,11.131" id="Fill-1457" fill="#23252B"></path>
            <path d="M24.979,15.819 C25.675,16.827 28.44,19.027 29.776,21.217 C30.765,21.09 36.403,21.519 36.561,21.46 C37.202,21.217 37.632,21.031 38.159,20.918 C38.604,20.82 39.33,21.074 39.872,21.16 C40.095,21.195 40.446,21.333 40.23,21.402 C39.977,21.488 39.347,21.459 39.003,21.459 C38.563,21.459 39.794,21.525 40.117,21.503 C40.395,21.483 41.748,21.416 41.728,21.618 C41.697,21.986 40.05,21.834 40.189,21.907 C40.283,21.949 41.984,21.696 41.914,21.916 C41.773,22.392 40.37,22.229 40.17,22.459 C40.17,22.459 40.475,22.444 40.915,22.358 C41.31,22.282 41.677,22.144 41.745,22.26 C41.975,22.639 39.609,22.893 39.888,23.074 C40.001,23.148 41.329,22.518 41.229,22.816 C41.181,22.965 39.576,23.597 39.576,23.597 C39.576,23.597 38.055,23.847 37.234,23.758 C36.742,23.704 29.945,23.76 28.921,23.646 C26.878,23.421 22.523,17.305 22.523,17.305 C22.523,17.305 24.284,14.808 24.979,15.819" id="Fill-1458" fill="#D2AC9C"></path>
            <path d="M25.631,8.816 C25.352,9.426 27.247,12.459 29.726,13.485 C29.128,14.541 28.621,15.23 28.621,15.23 C28.621,15.23 24.581,11.723 24.529,9.36 C25.256,8.978 25.631,8.816 25.631,8.816" id="Fill-1459" fill="#FFFFFE"></path>
            <path d="M24.679,14.105 C25.481,14.472 29.091,19.646 29.606,19.818 C30.119,19.988 33.674,20.717 34.96,21.004 C35.07,21.026 35.35,21.191 35.453,21.238 C35.685,21.342 36.117,21.367 36.117,21.367 L36.288,24.152 L35.289,24.444 C35.289,24.444 28.034,24.816 26.979,24.272 C26.322,23.937 21.485,19.67 21.01,18.104 C20.524,16.505 21.258,12.543 24.679,14.105" id="Fill-1460" fill="#FFFFFE"></path>
            <path d="M21.381,14.964 C21.864,16.791 26.409,22.131 26.979,22.131 C27.551,22.131 28.377,21.473 28.322,21.759 C28.266,22.046 27.607,23.074 27.835,23.074 C28.063,23.074 29.034,21.73 29.034,21.73 C29.034,21.73 29.007,22.987 29.351,23.045 C29.692,23.103 33.329,23.567 34.489,22.816 C35.375,22.245 35.488,21.503 35.488,21.503 L35.433,22.646 L36.147,22.475 L36.288,24.152 L35.062,24.502 C35.062,24.502 28.619,24.697 27.036,24.33 C25.808,24.044 23.352,21.53 21.41,18.904 C20.077,17.101 21.381,14.964 21.381,14.964" id="Fill-1461" fill="#D9DEDE"></path>
            <path d="M27.378,31.927 C35.203,34.154 40.788,37.111 41.215,37.795 C41.643,38.481 42.114,40.667 40.488,42.466 C38.858,44.265 33.405,56.375 33.318,57.231 C33.232,58.088 31.177,55.375 31.177,55.375 C31.177,55.375 32.232,55.574 32.833,55.574 C33.433,55.574 30.594,55.087 31.633,55.004 C32.347,54.947 32.339,54.889 32.662,54.774 C33.232,54.576 33.74,53.438 33.804,53.232 C34.29,51.663 39.001,42.631 39.802,41.31 C40.658,39.895 40.475,38.046 39.158,37.325 C28.063,31.242 24.293,32.784 25.778,32.327 C26.893,31.984 27.378,31.927 27.378,31.927" id="Fill-1462" fill="#3D368F"></path>
        </g>
    </g>
</svg>